<svg width="123" height="67" viewBox="0 0 123 67" fill="none" xmlns="http://www.w3.org/2000/svg">
<path fill-rule="evenodd" clip-rule="evenodd" d="M71.7768 12.0197C71.8967 12.1901 71.9998 12.3737 72.0839 12.5686C77.0438 13.9067 80.6952 18.3349 80.6952 23.5771C80.6952 29.8757 75.4243 35 68.9455 35C65.563 35 62.5104 33.6028 60.3646 31.3715H52.2193C50.4662 31.3715 49.04 29.9849 49.04 28.2806C49.04 27.3018 49.5109 26.4283 50.2436 25.8616C49.5109 25.2949 49.04 24.4215 49.04 23.4426C49.04 22.4638 49.5109 21.5904 50.2436 21.0237C49.5109 20.457 49.04 19.5835 49.04 18.6047C49.04 17.6259 49.5109 16.7525 50.2436 16.1857C49.5109 15.619 49.04 14.7456 49.04 13.7668C49.04 12.0625 50.4662 10.6759 52.2193 10.6759H54.0218C53.6699 10.1785 53.4634 9.57679 53.4634 8.92884C53.4634 8.28089 53.67 7.67917 54.0218 7.18181H48.487C46.734 7.18181 45.3077 5.7952 45.3077 4.0909C45.3077 2.38661 46.734 1 48.487 1H65.4205C67.1735 1 68.5998 2.38661 68.5998 4.0909C68.5998 4.73885 68.3932 5.34057 68.0413 5.83794H73.5762C75.3292 5.83794 76.7555 7.22454 76.7555 8.92884C76.7555 10.6331 75.3292 12.0197 73.5762 12.0197H71.7768ZM75.3732 8.92884C75.3732 7.96555 74.5671 7.18181 73.5762 7.18181H56.6427C55.6518 7.18181 54.8457 7.96555 54.8457 8.92884C54.8457 9.89213 55.6518 10.6759 56.6427 10.6759H69.1527H73.5762C74.5671 10.6759 75.3732 9.89213 75.3732 8.92884ZM46.69 4.0909C46.69 5.05419 47.4961 5.83794 48.487 5.83794H65.4205C66.4114 5.83794 67.2175 5.05419 67.2175 4.0909C67.2175 3.12762 66.4114 2.34387 65.4205 2.34387H48.487C47.4961 2.34387 46.69 3.12762 46.69 4.0909ZM69.1527 12.0197H52.2193C51.2285 12.0197 50.4223 12.8035 50.4223 13.7668C50.4223 14.7301 51.2285 15.5138 52.2193 15.5138H60.6309C62.7592 13.4395 65.7008 12.1542 68.9455 12.1542C69.2794 12.1542 69.6099 12.1686 69.9369 12.1953C69.6977 12.0826 69.4311 12.0197 69.1527 12.0197ZM59.4499 16.8577H52.2193C51.2284 16.8577 50.4223 17.6414 50.4223 18.6047C50.4223 19.5681 51.2284 20.3517 52.2193 20.3517H57.6734C58.0586 19.0814 58.6653 17.9027 59.4499 16.8577ZM57.356 21.6956H52.2193C51.2284 21.6956 50.4223 22.4793 50.4223 23.4426C50.4223 24.406 51.2284 25.1897 52.2193 25.1897H57.3134C57.2364 24.6627 57.1957 24.1245 57.1957 23.5771C57.1957 22.9363 57.2512 22.3079 57.356 21.6956ZM50.4223 28.2806C50.4223 29.2439 51.2284 30.0276 52.2193 30.0276H59.2539C58.5109 28.9758 57.9443 27.7977 57.5956 26.5335H52.2193C51.2284 26.5335 50.4223 27.3172 50.4223 28.2806ZM58.578 23.5771C58.578 29.1347 63.2289 33.6561 68.9455 33.6561C74.662 33.6561 79.3129 29.1347 79.3129 23.5771C79.3129 18.0195 74.662 13.4981 68.9455 13.4981C63.2289 13.4981 58.578 18.0195 58.578 23.5771ZM67.1824 21.2802C67.1824 22.0967 67.9718 22.7609 68.9421 22.7609C70.7945 22.7609 72.3016 24.1228 72.3016 25.7969C72.3016 27.2219 71.2094 28.42 69.742 28.7452V29.0811C69.742 29.5105 69.3838 29.8588 68.9421 29.8588C68.5005 29.8588 68.1423 29.5105 68.1423 29.0811V28.7452C66.6748 28.42 65.5827 27.2219 65.5827 25.7969C65.5827 25.3675 65.9409 25.0193 66.3826 25.0193C66.8243 25.0193 67.1824 25.3675 67.1824 25.7969C67.1824 26.6134 67.9718 27.2776 68.9421 27.2776C69.9125 27.2776 70.7018 26.6134 70.7018 25.7969C70.7018 24.9804 69.9125 24.3161 68.9421 24.3161C67.0897 24.3161 65.5827 22.9542 65.5827 21.2802C65.5827 19.8553 66.6748 18.6571 68.1423 18.3319V17.9275C68.1423 17.4981 68.5005 17.1499 68.9421 17.1499C69.3838 17.1499 69.742 17.4981 69.742 17.9275V18.3319C71.2094 18.6571 72.3016 19.8553 72.3016 21.2802C72.3016 21.7096 71.9434 22.0579 71.5017 22.0579C71.06 22.0579 70.7018 21.7096 70.7018 21.2802C70.7018 20.4637 69.9125 19.7995 68.9421 19.7995C67.9718 19.7995 67.1824 20.4637 67.1824 21.2802Z" fill="#FF872C"/>
<path d="M72.0839 12.5686L71.8543 12.6677L71.9022 12.7785L72.0188 12.8099L72.0839 12.5686ZM71.7768 12.0197V11.7697H71.2951L71.5724 12.1637L71.7768 12.0197ZM60.3646 31.3715L60.5448 31.1982L60.4711 31.1215H60.3646V31.3715ZM50.2436 25.8616L50.3966 26.0594L50.6522 25.8616L50.3966 25.6639L50.2436 25.8616ZM50.2436 21.0237L50.3966 21.2214L50.6522 21.0237L50.3966 20.8259L50.2436 21.0237ZM50.2436 16.1857L50.3966 16.3835L50.6522 16.1857L50.3966 15.988L50.2436 16.1857ZM54.0218 10.6759V10.9259H54.505L54.2259 10.5315L54.0218 10.6759ZM54.0218 7.18181L54.2259 7.32619L54.5049 6.93181H54.0218V7.18181ZM68.0413 5.83794L67.8373 5.69355L67.5582 6.08794H68.0413V5.83794ZM60.6309 15.5138V15.7638H60.7325L60.8053 15.6928L60.6309 15.5138ZM69.9369 12.1953L69.9165 12.4444L70.0434 11.9691L69.9369 12.1953ZM59.4499 16.8577L59.6498 17.0078L59.9502 16.6077H59.4499V16.8577ZM57.6734 20.3517V20.6017H57.8588L57.9126 20.4243L57.6734 20.3517ZM57.356 21.6956L57.6024 21.7378L57.6524 21.4456H57.356V21.6956ZM57.3134 25.1897V25.4397H57.6025L57.5607 25.1536L57.3134 25.1897ZM59.2539 30.0276V30.2776H59.7365L59.4581 29.8834L59.2539 30.0276ZM57.5956 26.5335L57.8366 26.4671L57.7859 26.2835H57.5956V26.5335ZM69.742 28.7452L69.6879 28.5011L69.492 28.5445V28.7452H69.742ZM68.1423 28.7452H68.3923V28.5445L68.1964 28.5011L68.1423 28.7452ZM68.1423 18.3319L68.1964 18.576L68.3923 18.5326V18.3319H68.1423ZM69.742 18.3319H69.492V18.5326L69.6879 18.576L69.742 18.3319ZM72.3134 12.4695C72.2225 12.2589 72.111 12.0602 71.9812 11.8758L71.5724 12.1637C71.6824 12.3199 71.777 12.4886 71.8543 12.6677L72.3134 12.4695ZM80.9452 23.5771C80.9452 18.2145 77.2107 13.6928 72.149 12.3272L72.0188 12.8099C76.8768 14.1206 80.4452 18.4552 80.4452 23.5771H80.9452ZM68.9455 35.25C75.5556 35.25 80.9452 30.0204 80.9452 23.5771H80.4452C80.4452 29.731 75.2929 34.75 68.9455 34.75V35.25ZM60.1844 31.5448C62.376 33.8237 65.4931 35.25 68.9455 35.25V34.75C65.6329 34.75 62.6448 33.3819 60.5448 31.1982L60.1844 31.5448ZM52.2193 31.6215H60.3646V31.1215H52.2193V31.6215ZM48.79 28.2806C48.79 30.1295 50.3349 31.6215 52.2193 31.6215V31.1215C50.5976 31.1215 49.29 29.8402 49.29 28.2806H48.79ZM50.0907 25.6639C49.301 26.2746 48.79 27.2192 48.79 28.2806H49.29C49.29 27.3844 49.7208 26.582 50.3966 26.0594L50.0907 25.6639ZM48.79 23.4426C48.79 24.5041 49.301 25.4486 50.0907 26.0594L50.3966 25.6639C49.7208 25.1412 49.29 24.3388 49.29 23.4426H48.79ZM50.0907 20.8259C49.301 21.4367 48.79 22.3812 48.79 23.4426H49.29C49.29 22.5465 49.7208 21.7441 50.3966 21.2214L50.0907 20.8259ZM48.79 18.6047C48.79 19.6661 49.301 20.6107 50.0907 21.2214L50.3966 20.8259C49.7208 20.3033 49.29 19.5009 49.29 18.6047H48.79ZM50.0907 15.988C49.301 16.5987 48.79 17.5433 48.79 18.6047H49.29C49.29 17.7085 49.7208 16.9062 50.3966 16.3835L50.0907 15.988ZM48.79 13.7668C48.79 14.8282 49.301 15.7727 50.0907 16.3835L50.3966 15.988C49.7208 15.4653 49.29 14.663 49.29 13.7668H48.79ZM52.2193 10.4259C50.3349 10.4259 48.79 11.9178 48.79 13.7668H49.29C49.29 12.2071 50.5976 10.9259 52.2193 10.9259V10.4259ZM54.0218 10.4259H52.2193V10.9259H54.0218V10.4259ZM53.2134 8.92884C53.2134 9.63092 53.4374 10.2827 53.8178 10.8203L54.2259 10.5315C53.9024 10.0743 53.7134 9.52265 53.7134 8.92884H53.2134ZM53.8178 7.03742C53.4375 7.57498 53.2134 8.22674 53.2134 8.92884H53.7134C53.7134 8.33504 53.9025 7.78337 54.2259 7.32619L53.8178 7.03742ZM48.487 7.43181H54.0218V6.93181H48.487V7.43181ZM45.0577 4.0909C45.0577 5.93987 46.6026 7.43181 48.487 7.43181V6.93181C46.8653 6.93181 45.5577 5.65053 45.5577 4.0909H45.0577ZM48.487 0.75C46.6026 0.75 45.0577 2.24193 45.0577 4.0909H45.5577C45.5577 2.53128 46.8653 1.25 48.487 1.25V0.75ZM65.4205 0.75H48.487V1.25H65.4205V0.75ZM68.8498 4.0909C68.8498 2.24193 67.3049 0.75 65.4205 0.75V1.25C67.0421 1.25 68.3498 2.53128 68.3498 4.0909H68.8498ZM68.2454 5.98232C68.6257 5.44476 68.8498 4.793 68.8498 4.0909H68.3498C68.3498 4.6847 68.1607 5.23637 67.8373 5.69355L68.2454 5.98232ZM73.5762 5.58794H68.0413V6.08794H73.5762V5.58794ZM77.0055 8.92884C77.0055 7.07987 75.4606 5.58794 73.5762 5.58794V6.08794C75.1978 6.08794 76.5055 7.36921 76.5055 8.92884H77.0055ZM73.5762 12.2697C75.4606 12.2697 77.0055 10.7778 77.0055 8.92884H76.5055C76.5055 10.4885 75.1978 11.7697 73.5762 11.7697V12.2697ZM71.7768 12.2697H73.5762V11.7697H71.7768V12.2697ZM73.5762 7.43181C74.4357 7.43181 75.1232 8.11022 75.1232 8.92884H75.6232C75.6232 7.82089 74.6985 6.93181 73.5762 6.93181V7.43181ZM56.6427 7.43181H73.5762V6.93181H56.6427V7.43181ZM55.0957 8.92884C55.0957 8.11022 55.7832 7.43181 56.6427 7.43181V6.93181C55.5204 6.93181 54.5957 7.82089 54.5957 8.92884H55.0957ZM56.6427 10.4259C55.7832 10.4259 55.0957 9.74746 55.0957 8.92884H54.5957C54.5957 10.0368 55.5204 10.9259 56.6427 10.9259V10.4259ZM69.1527 10.4259H56.6427V10.9259H69.1527V10.4259ZM73.5762 10.4259H69.1527V10.9259H73.5762V10.4259ZM75.1232 8.92884C75.1232 9.74746 74.4357 10.4259 73.5762 10.4259V10.9259C74.6985 10.9259 75.6232 10.0368 75.6232 8.92884H75.1232ZM48.487 5.58794C47.6275 5.58794 46.94 4.90952 46.94 4.0909H46.44C46.44 5.19886 47.3647 6.08794 48.487 6.08794V5.58794ZM65.4205 5.58794H48.487V6.08794H65.4205V5.58794ZM66.9675 4.0909C66.9675 4.90952 66.28 5.58794 65.4205 5.58794V6.08794C66.5428 6.08794 67.4675 5.19886 67.4675 4.0909H66.9675ZM65.4205 2.59387C66.28 2.59387 66.9675 3.27228 66.9675 4.0909H67.4675C67.4675 2.98295 66.5428 2.09387 65.4205 2.09387V2.59387ZM48.487 2.59387H65.4205V2.09387H48.487V2.59387ZM46.94 4.0909C46.94 3.27228 47.6275 2.59387 48.487 2.59387V2.09387C47.3647 2.09387 46.44 2.98295 46.44 4.0909H46.94ZM52.2193 12.2697H69.1527V11.7697H52.2193V12.2697ZM50.6723 13.7668C50.6723 12.9482 51.3598 12.2697 52.2193 12.2697V11.7697C51.0971 11.7697 50.1723 12.6588 50.1723 13.7668H50.6723ZM52.2193 15.2638C51.3598 15.2638 50.6723 14.5854 50.6723 13.7668H50.1723C50.1723 14.8747 51.0971 15.7638 52.2193 15.7638V15.2638ZM60.6309 15.2638H52.2193V15.7638H60.6309V15.2638ZM68.9455 11.9042C65.6338 11.9042 62.6301 13.2163 60.4564 15.3348L60.8053 15.6928C62.8883 13.6628 65.7678 12.4042 68.9455 12.4042V11.9042ZM69.9572 11.9461C69.6239 11.9189 69.2866 11.9042 68.9455 11.9042V12.4042C69.2722 12.4042 69.596 12.4183 69.9165 12.4444L69.9572 11.9461ZM69.1527 12.2697C69.3933 12.2697 69.6236 12.3241 69.8303 12.4214L70.0434 11.9691C69.7719 11.8412 69.469 11.7697 69.1527 11.7697V12.2697ZM52.2193 17.1077H59.4499V16.6077H52.2193V17.1077ZM50.6723 18.6047C50.6723 17.7861 51.3598 17.1077 52.2193 17.1077V16.6077C51.097 16.6077 50.1723 17.4968 50.1723 18.6047H50.6723ZM52.2193 20.1017C51.3598 20.1017 50.6723 19.4234 50.6723 18.6047H50.1723C50.1723 19.7127 51.097 20.6017 52.2193 20.6017V20.1017ZM57.6734 20.1017H52.2193V20.6017H57.6734V20.1017ZM59.2499 16.7076C58.4483 17.7753 57.8281 18.9802 57.4341 20.2792L57.9126 20.4243C58.2892 19.1827 58.8822 18.0301 59.6498 17.0078L59.2499 16.7076ZM52.2193 21.9456H57.356V21.4456H52.2193V21.9456ZM50.6723 23.4426C50.6723 22.624 51.3598 21.9456 52.2193 21.9456V21.4456C51.097 21.4456 50.1723 22.3346 50.1723 23.4426H50.6723ZM52.2193 24.9397C51.3598 24.9397 50.6723 24.2613 50.6723 23.4426H50.1723C50.1723 24.5507 51.097 25.4397 52.2193 25.4397V24.9397ZM57.3134 24.9397H52.2193V25.4397H57.3134V24.9397ZM56.9457 23.5771C56.9457 24.1369 56.9874 24.6872 57.066 25.2258L57.5607 25.1536C57.4855 24.6382 57.4457 24.112 57.4457 23.5771H56.9457ZM57.1096 21.6534C57.0024 22.2794 56.9457 22.9218 56.9457 23.5771H57.4457C57.4457 22.9507 57.4999 22.3365 57.6024 21.7378L57.1096 21.6534ZM52.2193 29.7776C51.3598 29.7776 50.6723 29.0993 50.6723 28.2806H50.1723C50.1723 29.3886 51.097 30.2776 52.2193 30.2776V29.7776ZM59.2539 29.7776H52.2193V30.2776H59.2539V29.7776ZM57.3546 26.6C57.7112 27.8927 58.2905 29.0971 59.0497 30.1718L59.4581 29.8834C58.7313 28.8545 58.1774 27.7026 57.8366 26.4671L57.3546 26.6ZM52.2193 26.7835H57.5956V26.2835H52.2193V26.7835ZM50.6723 28.2806C50.6723 27.4619 51.3598 26.7835 52.2193 26.7835V26.2835C51.097 26.2835 50.1723 27.1726 50.1723 28.2806H50.6723ZM68.9455 33.4061C63.3602 33.4061 58.828 28.99 58.828 23.5771H58.328C58.328 29.2794 63.0975 33.9061 68.9455 33.9061V33.4061ZM79.0629 23.5771C79.0629 28.99 74.5307 33.4061 68.9455 33.4061V33.9061C74.7934 33.9061 79.5629 29.2794 79.5629 23.5771H79.0629ZM68.9455 13.7481C74.5307 13.7481 79.0629 18.1642 79.0629 23.5771H79.5629C79.5629 17.8748 74.7934 13.2481 68.9455 13.2481V13.7481ZM58.828 23.5771C58.828 18.1642 63.3602 13.7481 68.9455 13.7481V13.2481C63.0975 13.2481 58.328 17.8748 58.328 23.5771H58.828ZM68.9421 22.5109C68.0677 22.5109 67.4324 21.9199 67.4324 21.2802H66.9324C66.9324 22.2734 67.8759 23.0109 68.9421 23.0109V22.5109ZM72.5516 25.7969C72.5516 23.9615 70.9082 22.5109 68.9421 22.5109V23.0109C70.6809 23.0109 72.0516 24.2841 72.0516 25.7969H72.5516ZM69.7961 28.9893C71.3584 28.6431 72.5516 27.358 72.5516 25.7969H72.0516C72.0516 27.0857 71.0605 28.197 69.6879 28.5011L69.7961 28.9893ZM69.992 29.0811V28.7452H69.492V29.0811H69.992ZM68.9421 30.1088C69.5152 30.1088 69.992 29.6552 69.992 29.0811H69.492C69.492 29.3659 69.2524 29.6088 68.9421 29.6088V30.1088ZM67.8923 29.0811C67.8923 29.6552 68.3691 30.1088 68.9421 30.1088V29.6088C68.6318 29.6088 68.3923 29.3659 68.3923 29.0811H67.8923ZM67.8923 28.7452V29.0811H68.3923V28.7452H67.8923ZM65.3327 25.7969C65.3327 27.358 66.5259 28.6431 68.0882 28.9893L68.1964 28.5011C66.8238 28.197 65.8327 27.0857 65.8327 25.7969H65.3327ZM66.3826 24.7693C65.8095 24.7693 65.3327 25.2228 65.3327 25.7969H65.8327C65.8327 25.5121 66.0723 25.2693 66.3826 25.2693V24.7693ZM67.4324 25.7969C67.4324 25.2228 66.9556 24.7693 66.3826 24.7693V25.2693C66.6929 25.2693 66.9324 25.5121 66.9324 25.7969H67.4324ZM68.9421 27.0276C68.0677 27.0276 67.4324 26.4366 67.4324 25.7969H66.9324C66.9324 26.7901 67.8759 27.5276 68.9421 27.5276V27.0276ZM70.4518 25.7969C70.4518 26.4366 69.8166 27.0276 68.9421 27.0276V27.5276C70.0084 27.5276 70.9518 26.7901 70.9518 25.7969H70.4518ZM68.9421 24.5661C69.8166 24.5661 70.4518 25.1571 70.4518 25.7969H70.9518C70.9518 24.8036 70.0084 24.0661 68.9421 24.0661V24.5661ZM65.3327 21.2802C65.3327 23.1155 66.9761 24.5661 68.9421 24.5661V24.0661C67.2034 24.0661 65.8327 22.7929 65.8327 21.2802H65.3327ZM68.0882 18.0878C66.5259 18.4341 65.3327 19.7191 65.3327 21.2802H65.8327C65.8327 19.9915 66.8238 18.8802 68.1964 18.576L68.0882 18.0878ZM67.8923 17.9275V18.3319H68.3923V17.9275H67.8923ZM68.9421 16.8999C68.3691 16.8999 67.8923 17.3534 67.8923 17.9275H68.3923C68.3923 17.6427 68.6318 17.3999 68.9421 17.3999V16.8999ZM69.992 17.9275C69.992 17.3534 69.5152 16.8999 68.9421 16.8999V17.3999C69.2524 17.3999 69.492 17.6427 69.492 17.9275H69.992ZM69.992 18.3319V17.9275H69.492V18.3319H69.992ZM72.5516 21.2802C72.5516 19.7191 71.3584 18.4341 69.7961 18.0878L69.6879 18.576C71.0605 18.8802 72.0516 19.9915 72.0516 21.2802H72.5516ZM71.5017 22.3079C72.0748 22.3079 72.5516 21.8543 72.5516 21.2802H72.0516C72.0516 21.565 71.812 21.8079 71.5017 21.8079V22.3079ZM70.4518 21.2802C70.4518 21.8543 70.9286 22.3079 71.5017 22.3079V21.8079C71.1914 21.8079 70.9518 21.565 70.9518 21.2802H70.4518ZM68.9421 20.0495C69.8166 20.0495 70.4518 20.6405 70.4518 21.2802H70.9518C70.9518 20.287 70.0084 19.5495 68.9421 19.5495V20.0495ZM67.4324 21.2802C67.4324 20.6405 68.0677 20.0495 68.9421 20.0495V19.5495C67.8759 19.5495 66.9324 20.287 66.9324 21.2802H67.4324Z" fill="#FF872C"/>
<path d="M19.8515 51.956C20.6195 51.956 21.3035 52.118 21.9035 52.442C22.5035 52.754 22.9775 53.228 23.3255 53.864C23.6735 54.5 23.8475 55.274 23.8475 56.186V62H22.2275V56.42C22.2275 55.436 21.9815 54.686 21.4895 54.17C21.0095 53.642 20.3555 53.378 19.5275 53.378C18.6755 53.378 17.9975 53.654 17.4935 54.206C16.9895 54.746 16.7375 55.532 16.7375 56.564V62H15.1175V56.42C15.1175 55.436 14.8715 54.686 14.3795 54.17C13.8995 53.642 13.2455 53.378 12.4175 53.378C11.5655 53.378 10.8875 53.654 10.3835 54.206C9.87952 54.746 9.62752 55.532 9.62752 56.564V62H7.98952V52.136H9.62752V53.558C9.95152 53.042 10.3835 52.646 10.9235 52.37C11.4755 52.094 12.0815 51.956 12.7415 51.956C13.5695 51.956 14.3015 52.142 14.9375 52.514C15.5735 52.886 16.0475 53.432 16.3595 54.152C16.6355 53.456 17.0915 52.916 17.7275 52.532C18.3635 52.148 19.0715 51.956 19.8515 51.956ZM35.0304 52.136L29.0904 66.644H27.3984L29.3424 61.892L25.3644 52.136H27.1824L30.2784 60.128L33.3384 52.136H35.0304ZM44.003 49.49V51.164H38.693V54.854H42.833V56.528H38.693V62H36.641V49.49H44.003ZM46.9487 50.768C46.5767 50.768 46.2647 50.642 46.0127 50.39C45.7607 50.138 45.6347 49.826 45.6347 49.454C45.6347 49.082 45.7607 48.77 46.0127 48.518C46.2647 48.266 46.5767 48.14 46.9487 48.14C47.3087 48.14 47.6147 48.266 47.8667 48.518C48.1187 48.77 48.2447 49.082 48.2447 49.454C48.2447 49.826 48.1187 50.138 47.8667 50.39C47.6147 50.642 47.3087 50.768 46.9487 50.768ZM47.9567 52.082V62H45.9047V52.082H47.9567ZM55.6548 51.92C56.4348 51.92 57.1308 52.082 57.7428 52.406C58.3668 52.73 58.8528 53.21 59.2008 53.846C59.5488 54.482 59.7228 55.25 59.7228 56.15V62H57.6888V56.456C57.6888 55.568 57.4668 54.89 57.0228 54.422C56.5788 53.942 55.9728 53.702 55.2048 53.702C54.4368 53.702 53.8248 53.942 53.3688 54.422C52.9248 54.89 52.7028 55.568 52.7028 56.456V62H50.6508V52.082H52.7028V53.216C53.0388 52.808 53.4648 52.49 53.9808 52.262C54.5088 52.034 55.0668 51.92 55.6548 51.92ZM61.6562 56.996C61.6562 56 61.8602 55.118 62.2682 54.35C62.6882 53.582 63.2522 52.988 63.9602 52.568C64.6802 52.136 65.4722 51.92 66.3362 51.92C67.1162 51.92 67.7942 52.076 68.3702 52.388C68.9582 52.688 69.4262 53.066 69.7742 53.522V52.082H71.8442V62H69.7742V60.524C69.4262 60.992 68.9522 61.382 68.3522 61.694C67.7522 62.006 67.0682 62.162 66.3002 62.162C65.4482 62.162 64.6682 61.946 63.9602 61.514C63.2522 61.07 62.6882 60.458 62.2682 59.678C61.8602 58.886 61.6562 57.992 61.6562 56.996ZM69.7742 57.032C69.7742 56.348 69.6302 55.754 69.3422 55.25C69.0662 54.746 68.7002 54.362 68.2442 54.098C67.7882 53.834 67.2962 53.702 66.7682 53.702C66.2402 53.702 65.7482 53.834 65.2922 54.098C64.8362 54.35 64.4642 54.728 64.1762 55.232C63.9002 55.724 63.7622 56.312 63.7622 56.996C63.7622 57.68 63.9002 58.28 64.1762 58.796C64.4642 59.312 64.8362 59.708 65.2922 59.984C65.7602 60.248 66.2522 60.38 66.7682 60.38C67.2962 60.38 67.7882 60.248 68.2442 59.984C68.7002 59.72 69.0662 59.336 69.3422 58.832C69.6302 58.316 69.7742 57.716 69.7742 57.032ZM79.5435 51.92C80.3235 51.92 81.0195 52.082 81.6315 52.406C82.2555 52.73 82.7415 53.21 83.0895 53.846C83.4375 54.482 83.6115 55.25 83.6115 56.15V62H81.5775V56.456C81.5775 55.568 81.3555 54.89 80.9115 54.422C80.4675 53.942 79.8615 53.702 79.0935 53.702C78.3255 53.702 77.7135 53.942 77.2575 54.422C76.8135 54.89 76.5915 55.568 76.5915 56.456V62H74.5395V52.082H76.5915V53.216C76.9275 52.808 77.3535 52.49 77.8695 52.262C78.3975 52.034 78.9555 51.92 79.5435 51.92ZM85.5449 57.032C85.5449 56.012 85.7489 55.118 86.1569 54.35C86.5769 53.57 87.1529 52.97 87.8849 52.55C88.6169 52.13 89.4569 51.92 90.4049 51.92C91.6049 51.92 92.5949 52.208 93.3749 52.784C94.1669 53.348 94.7009 54.158 94.9769 55.214H92.7629C92.5829 54.722 92.2949 54.338 91.8989 54.062C91.5029 53.786 91.0049 53.648 90.4049 53.648C89.5649 53.648 88.8929 53.948 88.3889 54.548C87.8969 55.136 87.6509 55.964 87.6509 57.032C87.6509 58.1 87.8969 58.934 88.3889 59.534C88.8929 60.134 89.5649 60.434 90.4049 60.434C91.5929 60.434 92.3789 59.912 92.7629 58.868H94.9769C94.6889 59.876 94.1489 60.68 93.3569 61.28C92.5649 61.868 91.5809 62.162 90.4049 62.162C89.4569 62.162 88.6169 61.952 87.8849 61.532C87.1529 61.1 86.5769 60.5 86.1569 59.732C85.7489 58.952 85.5449 58.052 85.5449 57.032ZM106.112 56.798C106.112 57.17 106.088 57.506 106.04 57.806H98.4619C98.5219 58.598 98.8159 59.234 99.3439 59.714C99.8719 60.194 100.52 60.434 101.288 60.434C102.392 60.434 103.172 59.972 103.628 59.048H105.842C105.542 59.96 104.996 60.71 104.204 61.298C103.424 61.874 102.452 62.162 101.288 62.162C100.34 62.162 99.4879 61.952 98.7319 61.532C97.9879 61.1 97.3999 60.5 96.9679 59.732C96.5479 58.952 96.3379 58.052 96.3379 57.032C96.3379 56.012 96.5419 55.118 96.9499 54.35C97.3699 53.57 97.9519 52.97 98.6959 52.55C99.4519 52.13 100.316 51.92 101.288 51.92C102.224 51.92 103.058 52.124 103.79 52.532C104.522 52.94 105.092 53.516 105.5 54.26C105.908 54.992 106.112 55.838 106.112 56.798ZM103.97 56.15C103.958 55.394 103.688 54.788 103.16 54.332C102.632 53.876 101.978 53.648 101.198 53.648C100.49 53.648 99.8839 53.876 99.3799 54.332C98.8759 54.776 98.5759 55.382 98.4799 56.15H103.97ZM111.731 62.162C110.951 62.162 110.249 62.024 109.625 61.748C109.013 61.46 108.527 61.076 108.167 60.596C107.807 60.104 107.615 59.558 107.591 58.958H109.715C109.751 59.378 109.949 59.732 110.309 60.02C110.681 60.296 111.143 60.434 111.695 60.434C112.271 60.434 112.715 60.326 113.027 60.11C113.351 59.882 113.513 59.594 113.513 59.246C113.513 58.874 113.333 58.598 112.973 58.418C112.625 58.238 112.067 58.04 111.299 57.824C110.555 57.62 109.949 57.422 109.481 57.23C109.013 57.038 108.605 56.744 108.257 56.348C107.921 55.952 107.753 55.43 107.753 54.782C107.753 54.254 107.909 53.774 108.221 53.342C108.533 52.898 108.977 52.55 109.553 52.298C110.141 52.046 110.813 51.92 111.569 51.92C112.697 51.92 113.603 52.208 114.287 52.784C114.983 53.348 115.355 54.122 115.403 55.106H113.351C113.315 54.662 113.135 54.308 112.811 54.044C112.487 53.78 112.049 53.648 111.497 53.648C110.957 53.648 110.543 53.75 110.255 53.954C109.967 54.158 109.823 54.428 109.823 54.764C109.823 55.028 109.919 55.25 110.111 55.43C110.303 55.61 110.537 55.754 110.813 55.862C111.089 55.958 111.497 56.084 112.037 56.24C112.757 56.432 113.345 56.63 113.801 56.834C114.269 57.026 114.671 57.314 115.007 57.698C115.343 58.082 115.517 58.592 115.529 59.228C115.529 59.792 115.373 60.296 115.061 60.74C114.749 61.184 114.305 61.532 113.729 61.784C113.165 62.036 112.499 62.162 111.731 62.162Z" fill="white"/>
</svg>
